<svg width="83" height="83" viewBox="0 0 83 83" fill="none" xmlns="http://www.w3.org/2000/svg">
<rect width="83" height="83" fill="#E5E5E5"/>
<g id="375" clip-path="url(#clip0_0_1)">
<rect width="375" height="3346" transform="translate(-32 -1065)" fill="white"/>
<g id="Frame 2087325426">
<g id="Frame 1171275595">
<g id="Frame 1171275592">
<g id="Group 2087325531">
<g id="Vector">
<path d="M11.6618 51.3181C6.25456 33.2943 35.4158 11.6096 46.9945 25.0444C54.6514 33.9269 54.0844 55.2168 42.9835 63.4715C31.8826 71.7263 15.2362 63.2365 11.6618 51.3181Z" fill="url(#paint0_linear_0_1)"/>
<path d="M11.6618 51.3181C6.25456 33.2943 35.4158 11.6096 46.9945 25.0444C54.6514 33.9269 54.0844 55.2168 42.9835 63.4715C31.8826 71.7263 15.2362 63.2365 11.6618 51.3181Z" fill="white" fill-opacity="0.5"/>
</g>
<g id="Union">
<mask id="path-3-inside-1_0_1" fill="white">
<path d="M37.9043 32.0495C33.8574 32.4035 30.8638 35.9712 31.2179 40.018L31.8842 47.6346C32.2383 51.6814 35.806 54.6751 39.8528 54.321L63.3776 52.2629C67.4245 51.9088 70.4181 48.3412 70.064 44.2943L69.3977 36.6777C69.0436 32.6309 65.476 29.6373 61.4291 29.9913L37.9043 32.0495Z"/>
<path d="M71.9783 38.6864C71.9014 37.8078 71.1269 37.1579 70.2483 37.2348L70.805 43.5981C71.6836 43.5212 72.3335 42.7467 72.2566 41.8681L71.9783 38.6864Z"/>
</mask>
<path d="M37.9043 32.0495C33.8574 32.4035 30.8638 35.9712 31.2179 40.018L31.8842 47.6346C32.2383 51.6814 35.806 54.6751 39.8528 54.321L63.3776 52.2629C67.4245 51.9088 70.4181 48.3412 70.064 44.2943L69.3977 36.6777C69.0436 32.6309 65.476 29.6373 61.4291 29.9913L37.9043 32.0495Z" stroke="#21201F" stroke-width="5.42951" mask="url(#path-3-inside-1_0_1)"/>
<path d="M71.9783 38.6864C71.9014 37.8078 71.1269 37.1579 70.2483 37.2348L70.805 43.5981C71.6836 43.5212 72.3335 42.7467 72.2566 41.8681L71.9783 38.6864Z" stroke="#21201F" stroke-width="5.42951" mask="url(#path-3-inside-1_0_1)"/>
</g>
</g>
</g>
</g>
</g>
</g>
<defs>
<linearGradient id="paint0_linear_0_1" x1="50.9383" y1="31.5671" x2="11.9438" y2="52.622" gradientUnits="userSpaceOnUse">
<stop stop-color="#FF5C4D"/>
<stop offset="0.25" stop-color="#EB469F"/>
<stop offset="0.72" stop-color="#8341EF"/>
<stop offset="1" stop-color="#3F68F9"/>
</linearGradient>
<clipPath id="clip0_0_1">
<rect width="375" height="3346" fill="white" transform="translate(-32 -1065)"/>
</clipPath>
</defs>
</svg>
