<svg width="83" height="83" viewBox="0 0 83 83" fill="none" xmlns="http://www.w3.org/2000/svg">
<path d="M0.859306 53.5427C-6.16149 30.1404 31.7016 1.98502 46.7354 19.4287C56.6772 30.9618 55.941 58.6047 41.5275 69.3227C27.1141 80.0407 5.50028 69.0175 0.859306 53.5427Z" fill="url(#paint0_linear_516_65)"/>
<path d="M0.859306 53.5427C-6.16149 30.1404 31.7016 1.98502 46.7354 19.4287C56.6772 30.9618 55.941 58.6047 41.5275 69.3227C27.1141 80.0407 5.50028 69.0175 0.859306 53.5427Z" fill="white" fill-opacity="0.5"/>
<mask id="path-2-inside-1_516_65" fill="white">
<path d="M29.6821 30.6914C24.4621 31.1481 20.6007 35.7499 21.0574 40.9699L21.9169 50.7943C22.3736 56.0142 26.9755 59.8756 32.1954 59.4189L62.5394 56.7642C67.7594 56.3075 71.6208 51.7057 71.1641 46.4857L70.3045 36.6613C69.8479 31.4414 65.246 27.58 60.0261 28.0367L29.6821 30.6914Z"/>
<path d="M73.6332 39.2523C73.5341 38.119 72.535 37.2807 71.4017 37.3798L72.1198 45.5877C73.2531 45.4885 74.0914 44.4895 73.9923 43.3562L73.6332 39.2523Z"/>
</mask>
<path d="M29.6821 30.6914C24.4621 31.1481 20.6007 35.7499 21.0574 40.9699L21.9169 50.7943C22.3736 56.0142 26.9755 59.8756 32.1954 59.4189L62.5394 56.7642C67.7594 56.3075 71.6208 51.7057 71.1641 46.4857L70.3045 36.6613C69.8479 31.4414 65.246 27.58 60.0261 28.0367L29.6821 30.6914Z" stroke="#21201F" stroke-width="7.00339" mask="url(#path-2-inside-1_516_65)"/>
<path d="M73.6332 39.2523C73.5341 38.119 72.535 37.2807 71.4017 37.3798L72.1198 45.5877C73.2531 45.4885 74.0914 44.4895 73.9923 43.3562L73.6332 39.2523Z" stroke="#21201F" stroke-width="7.00339" mask="url(#path-2-inside-1_516_65)"/>
<defs>
<linearGradient id="paint0_linear_516_65" x1="51.8561" y1="27.8978" x2="1.22539" y2="55.2356" gradientUnits="userSpaceOnUse">
<stop stop-color="#FF5C4D"/>
<stop offset="0.25" stop-color="#EB469F"/>
<stop offset="0.72" stop-color="#8341EF"/>
<stop offset="1" stop-color="#3F68F9"/>
</linearGradient>
</defs>
</svg>
